<?xml version="1.0" encoding="utf-8"?>
<!DOCTYPE svg PUBLIC "-//W3C//DTD SVG 1.1//EN" "http://www.w3.org/Graphics/SVG/1.1/DTD/svg11.dtd" [
	<!ENTITY ns_svg "http://www.w3.org/2000/svg">
	<!ENTITY ns_xlink "http://www.w3.org/1999/xlink">
]>
<svg  version="1.1" xmlns="&ns_svg;" xmlns:xlink="&ns_xlink;" width="200" height="200" viewBox="0 0 200 200"
	 overflow="visible" enable-background="new 0 0 200 200" xml:space="preserve">
<ellipse fill="#ED1C24" cx="97.5" cy="97.5" rx="97.5" ry="97.5"/>
<path id="Leica" fill="#FFFFFF" d="M154.635,108.268c-2.959,0-2.959-3.251-2.959-4.195c0-2.482,1.948-12.354,7.313-12.354
	c2.257,0,3.47,1.904,3.47,3.328C162.458,95.343,161.095,108.268,154.635,108.268 M79.093,91.47c1.616,0.097,2.704,1.253,2.647,2.435
	c-0.266,7.629-9.671,6.447-9.671,6.447S73.604,91.134,79.093,91.47z M177.517,105.551c0,0-2.54,1.83-4.343,1.83
	c-1.367,0-2.116-1.142-2.116-2.395c0-2.818,4.414-16.707,4.414-16.707l-10.799,0.144l-0.564,1.878c0,0-1.575-3.185-7.242-3.185
	c-10.994,0-17.02,9.479-17.282,15.052c-0.047,1.209-0.061,1.381-0.061,1.381c-0.255,0.295-4.142,4.719-8.911,4.719
	c-3.816,0-4.451-3.197-4.451-5.239c0-2.218,1.844-10.981,7.047-10.981c2.832,0,4.565,2.463,4.565,2.463l1.528-5.016
	c0,0-2.415-1.877-7.346-1.891c-10.628-0.014-17.887,7.968-18.142,15.156c-0.047,1.071-0.087,1.424-0.074,1.491
	c-0.353,0.427-2.973,3.439-6.373,3.439c-2.324,0-2.324-1.813-2.324-2.62c0-1.085,4.595-16.731,4.595-16.731l-12.012,0.182
	l-4.286,15.183c0,0-6.583,4.767-15.788,5.426c-4.746,0.325-6.382-2.551-6.382-4.243c0-0.702,0-0.702,0-0.702
	s1.931,0.125,3.382,0.125c1.128,0,15.156-0.971,15.156-9.557c0-4.904-4.897-6.775-11.108-6.775c-11.461,0-19.5,7.111-19.5,15.545
	c0,7.699,6.584,11.008,15.069,11.008c9.617,0,19.005-5.889,19.005-5.889s0.524,5.889,8.119,5.889c7.836,0,13.97-5.889,13.97-5.889
	s3.413,5.664,11.209,5.664c7.964,0,14.081-6.443,14.081-6.443s2.133,6.077,10.023,6.077c6.164,0,9.473-4.044,9.473-4.044
	s1.76,4.044,7.135,4.044c6.553,0,11.475-4.622,11.475-4.622L177.517,105.551z M24.663,120.082c-3.033,0.088-5.008-1.928-5.008-3.057
	c0-2.496,3.063-2.889,5.008-2.751c4.706,0.255,8.75,1.864,8.75,1.864S28.64,119.958,24.663,120.082 M69.463,61.628
	c3.534,0,4.706,2.868,4.41,5.448c-1.72,15.143-16.758,18.609-16.758,18.609S60.85,61.628,69.463,61.628z M179.684,115.83
	c0,0-25.24,8.793-73.396,8.199c-33.214-0.406-58.538-10.215-58.538-10.215s0.819-1.596,1.357-2.671
	c3.329-6.788,7.255-20.561,7.255-20.561S79.19,84.221,79.19,66.092c0-5.736-5.334-9.432-10.601-9.657
	c-18.397-0.716-23.5,25.502-24.628,29.96c-0.071,0.322-0.098,0.42-0.098,0.42c-5.68-0.787-8.881-1.941-8.881-1.941l-1.3,3.537
	c3.833,1.816,9.405,2.408,9.405,2.408c-1.102,7.023-6.557,20.325-6.557,20.325s-5.035-1.669-11.29-1.669
	c-8.109,0-10.896,3.859-11.095,6.281c-0.538,6.258,7.333,9.197,12.828,9.197c10.726,0,16.298-5.788,16.298-5.788
	s30.167,11.394,61.632,11.394c41.186,0,75.915-10.967,75.915-10.967L179.684,115.83z M106.006,74.1
	c-3.826,0-6.647,1.556-6.647,5.146c0,3.625,3.262,4.622,6.647,4.622c3.406,0,6.507-1.603,6.507-5.298
	C112.513,74.862,108.777,74.1,106.006,74.1"/>
</svg>
