<svg fill="currentColor" height="100%" viewBox="0 0 109 26" width="auto" xmlns="http://www.w3.org/2000/svg">
<path clip-rule="evenodd" d="M16.6362 4.4542C15.6064 4.4542 14.7718 3.67647 14.7718 2.722C14.7718 1.75868 15.6064 0.980957 16.6362 0.980957C17.6571 0.980957 18.4917 1.75868 18.4917 2.722C18.4917 3.67647 17.6571 4.4542 16.6362 4.4542ZM9.16515 19.955L14.0213 6.38023H10.6034L7.4606 16.4641H7.31855L4.18467 6.38023H0.757812L5.614 19.955H9.16515ZM15.0194 6.38023V19.955H18.2332V6.38023H15.0194ZM20.1387 17.9223V19.955H31.3337V17.3037H24.409V17.1888L31.1029 8.56315V6.38023H20.3695V9.03156H27.17V9.14645L20.1387 17.9223ZM32.962 19.955V17.9223L39.9933 9.14645V9.03156H33.1928V6.38023H43.9262V8.56315L37.2323 17.1888V17.3037H44.157V19.955H32.962ZM54.6556 6.38023V14.2458C54.6556 16.3139 53.173 17.3391 51.7526 17.3391C50.2078 17.3391 49.178 16.252 49.178 14.5286V6.38023H45.9642V15.0236C45.9642 18.2847 47.8286 20.1318 50.5097 20.1318C52.5516 20.1318 53.9898 19.0624 54.6112 17.5423H54.7533V19.955H57.8694V6.38023H54.6556ZM63.8759 20.229C61.2747 20.229 59.3127 18.815 59.3127 16.146C59.3127 13.0881 61.8429 12.3015 64.4885 12.0187C64.6301 12.0036 64.7666 11.9893 64.8983 11.9755C67.0049 11.7542 67.8621 11.6642 67.8621 10.7991V10.7461C67.8621 9.41158 67.0453 8.65154 65.5539 8.65154C63.9825 8.65154 63.0769 9.44694 62.7573 10.3749L59.7566 9.95069C60.4669 7.47612 62.6686 6.20348 65.5361 6.20348C68.1373 6.20348 71.0759 7.28168 71.0759 10.8698V19.955H67.9864V18.0903H67.8799C67.2939 19.2303 66.0155 20.229 63.8759 20.229ZM67.8697 15.0867C67.8697 16.598 66.6445 17.8794 64.7091 17.8794C63.3686 17.8794 62.4098 17.2696 62.4098 16.0942C62.4098 14.8658 63.484 14.3532 64.9222 14.1499L65.0652 14.1305C65.9433 14.0118 67.4748 13.8048 67.8697 13.4871V15.0867ZM76.3087 1.85594V19.9557H73.0949V1.85594H76.3087ZM78.3902 6.38023V19.955H81.604V6.38023H78.3902ZM80.0056 4.4542C78.9757 4.4542 78.1412 3.67647 78.1412 2.722C78.1412 1.75868 78.9757 0.980957 80.0056 0.980957C81.0265 0.980957 81.861 1.75868 81.861 2.722C81.861 3.67647 81.0265 4.4542 80.0056 4.4542ZM90.4943 8.85512V6.38055H87.8043V3.12825H84.5905V6.38055H82.6551V8.85512H84.5905V16.4026C84.5727 18.9567 86.4371 20.2116 88.8519 20.1409C89.7663 20.1144 90.3966 19.9377 90.7429 19.8228L90.2013 17.3217C90.0238 17.3659 89.6598 17.4454 89.2603 17.4454C88.4524 17.4454 87.8043 17.1626 87.8043 15.8723V8.85512H90.4943ZM93.9621 25.0191C93.0832 25.0191 92.3019 24.86 91.8669 24.6744L92.6127 22.191C94.0154 22.5887 94.9387 22.4738 95.5512 20.9714L95.8265 20.2378L90.8815 6.38023H94.2906L97.4334 16.632H97.5754L100.727 6.38023L104.163 6.3979L98.6851 21.5989C97.9128 23.7288 96.4657 25.0191 93.9621 25.0191ZM104.336 18.2057C104.327 19.2839 105.206 20.15 106.289 20.15C107.337 20.15 108.233 19.2839 108.242 18.2057C108.233 17.1452 107.337 16.2791 106.289 16.2791C105.206 16.2791 104.327 17.1452 104.336 18.2057Z" fill-rule="evenodd"></path>
</svg>