<svg width="32" height="32" viewBox="0 0 32 32" fill="none" xmlns="http://www.w3.org/2000/svg">
<g id="icon-search">
<path id="Shape" fill-rule="evenodd" clip-rule="evenodd" d="M4.75 14.6667C4.75 9.18984 9.18984 4.75 14.6667 4.75C20.1435 4.75 24.5833 9.18984 24.5833 14.6667C24.5833 17.3566 23.5124 19.7963 21.7735 21.5828C21.737 21.6081 21.7021 21.6371 21.6695 21.6697C21.637 21.7022 21.608 21.7371 21.5827 21.7737C19.7962 23.5124 17.3565 24.5833 14.6667 24.5833C9.18984 24.5833 4.75 20.1435 4.75 14.6667ZM22.1917 23.2525C20.1825 25.0149 17.5494 26.0833 14.6667 26.0833C8.36142 26.0833 3.25 20.9719 3.25 14.6667C3.25 8.36142 8.36142 3.25 14.6667 3.25C20.9719 3.25 26.0833 8.36142 26.0833 14.6667C26.0833 17.5494 25.0149 20.1826 23.2524 22.1919L28.5302 27.4697C28.8231 27.7626 28.8231 28.2374 28.5302 28.5303C28.2373 28.8232 27.7624 28.8232 27.4695 28.5303L22.1917 23.2525Z" fill="#004E70"/>
</g>
</svg>
