<svg width="20" height="20" viewBox="0 0 20 20" fill="none" xmlns="http://www.w3.org/2000/svg">
<path fillRule="evenodd" clipRule="evenodd" d="M11.4641 2.43016C10.4973 2.2417 9.50331 2.2417 8.53658 2.43016C8.19778 2.49621 7.86959 2.2751 7.80354 1.93629C7.73749 1.59749 7.9586 1.2693 8.29741 1.20326C9.4221 0.984006 10.5786 0.984006 11.7032 1.20326C12.042 1.2693 12.2632 1.59749 12.1971 1.93629C12.1311 2.2751 11.8029 2.49621 11.4641 2.43016ZM5.86093 2.74348C6.05321 3.03014 5.9767 3.4184 5.69003 3.61068C4.86949 4.16107 4.16306 4.86488 3.60963 5.68338C3.41629 5.96933 3.02775 6.0444 2.7418 5.85105C2.45585 5.65771 2.38078 5.26917 2.57412 4.98322C3.21779 4.03127 4.03939 3.21271 4.99372 2.57258C5.28039 2.3803 5.66865 2.45681 5.86093 2.74348ZM14.1492 2.74155C14.3426 2.45561 14.7311 2.38054 15.0171 2.57388C15.969 3.21754 16.7876 4.03914 17.4277 4.99348C17.62 5.28014 17.5435 5.6684 17.2568 5.86068C16.9702 6.05296 16.5819 5.97645 16.3896 5.68979C15.8392 4.86924 15.1354 4.16282 14.3169 3.60939C14.031 3.41604 13.9559 3.0275 14.1492 2.74155ZM1.93654 7.8033C2.27534 7.86934 2.49645 8.19753 2.4304 8.53633C2.24195 9.50307 2.24195 10.4971 2.4304 11.4638C2.49645 11.8026 2.27534 12.1308 1.93654 12.1969C1.59774 12.2629 1.26955 12.0418 1.2035 11.703C0.98425 10.5783 0.98425 9.42186 1.2035 8.29716C1.26955 7.95836 1.59774 7.73725 1.93654 7.8033ZM18.0638 7.8033C18.4026 7.73725 18.7308 7.95836 18.7969 8.29716C19.0161 9.42186 19.0161 10.5783 18.7969 11.703C18.7308 12.0418 18.4026 12.2629 18.0638 12.1969C17.725 12.1308 17.5039 11.8026 17.57 11.4638C17.7584 10.4971 17.7584 9.50307 17.57 8.53633C17.5039 8.19753 17.725 7.86934 18.0638 7.8033ZM10.0002 9.79167C9.88518 9.79167 9.79191 9.88494 9.79191 10C9.79191 10.1151 9.88518 10.2083 10.0002 10.2083C10.1153 10.2083 10.2086 10.1151 10.2086 10C10.2086 9.88494 10.1153 9.79167 10.0002 9.79167ZM8.54191 10C8.54191 9.19458 9.19483 8.54167 10.0002 8.54167C10.8057 8.54167 11.4586 9.19458 11.4586 10C11.4586 10.8054 10.8057 11.4583 10.0002 11.4583C9.19483 11.4583 8.54191 10.8054 8.54191 10ZM2.74372 14.1394C3.03039 13.9471 3.41865 14.0236 3.61093 14.3103C4.16132 15.1308 4.86512 15.8372 5.68362 16.3907C5.96957 16.584 6.04464 16.9725 5.8513 17.2585C5.65796 17.5444 5.26941 17.6195 4.98347 17.4262C4.03151 16.7825 3.21295 15.9609 2.57283 15.0066C2.38055 14.7199 2.45706 14.3316 2.74372 14.1394ZM17.2585 14.149C17.5445 14.3423 17.6195 14.7309 17.4262 15.0168C16.7825 15.9688 15.9609 16.7873 15.0066 17.4275C14.7199 17.6197 14.3317 17.5432 14.1394 17.2566C13.9471 16.9699 14.0236 16.5816 14.3103 16.3894C15.1308 15.839 15.8373 15.1352 16.3907 14.3167C16.584 14.0307 16.9726 13.9557 17.2585 14.149ZM7.80352 18.0639C7.8695 17.7251 8.19765 17.5039 8.53646 17.5699C9.50329 17.7582 10.4974 17.7582 11.4642 17.5699C11.803 17.5039 12.1312 17.7251 12.1971 18.0639C12.2631 18.4027 12.0419 18.7309 11.7031 18.7969C10.5785 19.0159 9.42216 19.0159 8.29753 18.7969C7.95871 18.7309 7.73754 18.4027 7.80352 18.0639Z" fill="#F0F4F6"/>
</svg>
