<svg width="40" height="40" viewBox="0 0 40 40" fill="none" xmlns="http://www.w3.org/2000/svg">
<path d="M4 0.5H36C37.933 0.5 39.5 2.067 39.5 4V36C39.5 37.933 37.933 39.5 36 39.5H4C2.067 39.5 0.5 37.933 0.5 36V4C0.500001 2.067 2.067 0.5 4 0.5Z" stroke="#CBD8DF"/>
<path fillRule="evenodd" clipRule="evenodd" d="M12.5462 12.5462C12.976 12.1164 13.5589 11.875 14.1667 11.875C14.5118 11.875 14.7917 12.1548 14.7917 12.5C14.7917 12.8452 14.5118 13.125 14.1667 13.125C13.8904 13.125 13.6254 13.2347 13.4301 13.4301C13.2347 13.6254 13.125 13.8904 13.125 14.1667C13.125 14.5118 12.8452 14.7917 12.5 14.7917C12.1548 14.7917 11.875 14.5118 11.875 14.1667C11.875 13.5589 12.1164 12.976 12.5462 12.5462ZM16.875 12.5C16.875 12.1548 17.1548 11.875 17.5 11.875H18.3333C18.6785 11.875 18.9583 12.1548 18.9583 12.5C18.9583 12.8452 18.6785 13.125 18.3333 13.125H17.5C17.1548 13.125 16.875 12.8452 16.875 12.5ZM21.0417 12.5C21.0417 12.1548 21.3215 11.875 21.6667 11.875H22.5C22.8452 11.875 23.125 12.1548 23.125 12.5C23.125 12.8452 22.8452 13.125 22.5 13.125H21.6667C21.3215 13.125 21.0417 12.8452 21.0417 12.5ZM25.2083 12.5C25.2083 12.1548 25.4882 11.875 25.8333 11.875C26.4411 11.875 27.024 12.1164 27.4538 12.5462C27.8836 12.976 28.125 13.5589 28.125 14.1667C28.125 14.5118 27.8452 14.7917 27.5 14.7917C27.1548 14.7917 26.875 14.5118 26.875 14.1667C26.875 13.8904 26.7653 13.6254 26.5699 13.4301C26.3746 13.2347 26.1096 13.125 25.8333 13.125C25.4882 13.125 25.2083 12.8452 25.2083 12.5ZM12.5 16.875C12.8452 16.875 13.125 17.1548 13.125 17.5V18.3333C13.125 18.6785 12.8452 18.9583 12.5 18.9583C12.1548 18.9583 11.875 18.6785 11.875 18.3333V17.5C11.875 17.1548 12.1548 16.875 12.5 16.875ZM27.5 16.875C27.8452 16.875 28.125 17.1548 28.125 17.5V19.1667C28.125 19.5118 27.8452 19.7917 27.5 19.7917C27.1548 19.7917 26.875 19.5118 26.875 19.1667V17.5C26.875 17.1548 27.1548 16.875 27.5 16.875ZM19.5581 19.5581C19.7348 19.3813 20 19.3268 20.2321 19.4197L28.5655 22.753C28.8032 22.8481 28.9588 23.0786 28.9583 23.3346C28.9578 23.5906 28.8012 23.8204 28.5631 23.9146L25.2317 25.2317L23.9146 28.5631C23.8204 28.8012 23.5906 28.9578 23.3346 28.9583C23.0786 28.9588 22.8481 28.8032 22.753 28.5655L19.4197 20.2321C19.3268 20 19.3813 19.7348 19.5581 19.5581ZM21.1219 21.1219L23.3299 26.642L24.1688 24.5202C24.2323 24.3595 24.3595 24.2323 24.5202 24.1688L26.642 23.3299L21.1219 21.1219ZM12.5 21.0417C12.8452 21.0417 13.125 21.3215 13.125 21.6667V22.5C13.125 22.8452 12.8452 23.125 12.5 23.125C12.1548 23.125 11.875 22.8452 11.875 22.5V21.6667C11.875 21.3215 12.1548 21.0417 12.5 21.0417ZM12.5 25.2083C12.8452 25.2083 13.125 25.4882 13.125 25.8333C13.125 26.1096 13.2347 26.3746 13.4301 26.5699C13.6254 26.7653 13.8904 26.875 14.1667 26.875C14.5118 26.875 14.7917 27.1548 14.7917 27.5C14.7917 27.8452 14.5118 28.125 14.1667 28.125C13.5589 28.125 12.976 27.8836 12.5462 27.4538C12.1164 27.024 11.875 26.4411 11.875 25.8333C11.875 25.4882 12.1548 25.2083 12.5 25.2083ZM16.875 27.5C16.875 27.1548 17.1548 26.875 17.5 26.875H19.1667C19.5118 26.875 19.7917 27.1548 19.7917 27.5C19.7917 27.8452 19.5118 28.125 19.1667 28.125H17.5C17.1548 28.125 16.875 27.8452 16.875 27.5Z" fill="#00374E"/>
</svg>
