<svg width="40" height="40" viewBox="0 0 40 40" fill="none" xmlns="http://www.w3.org/2000/svg">
<path d="M4 0.5H36C37.933 0.5 39.5 2.067 39.5 4V36C39.5 37.933 37.933 39.5 36 39.5H4C2.067 39.5 0.5 37.933 0.5 36V4C0.500001 2.067 2.067 0.5 4 0.5Z" stroke="#CBD8DF"/>
<path fillRule="evenodd" clipRule="evenodd" d="M25.8333 13.125C25.258 13.125 24.7917 13.5914 24.7917 14.1667C24.7917 14.742 25.258 15.2083 25.8333 15.2083C26.4086 15.2083 26.875 14.742 26.875 14.1667C26.875 13.5914 26.4086 13.125 25.8333 13.125ZM23.6241 13.5555C23.8915 12.5866 24.7793 11.875 25.8333 11.875C27.099 11.875 28.125 12.901 28.125 14.1667C28.125 15.4323 27.099 16.4583 25.8333 16.4583C24.7899 16.4583 23.9093 15.761 23.6323 14.8069C21.3407 14.9376 19.1693 15.9058 17.5375 17.5375C15.9058 19.1693 14.9376 21.3407 14.8069 23.6323C15.761 23.9093 16.4583 24.7899 16.4583 25.8333C16.4583 27.099 15.4323 28.125 14.1667 28.125C12.901 28.125 11.875 27.099 11.875 25.8333C11.875 24.7793 12.5866 23.8915 13.5555 23.6241C13.6894 21.0037 14.7894 18.518 16.6537 16.6537C18.518 14.7894 21.0037 13.6894 23.6241 13.5555ZM14.1667 24.7917C13.5914 24.7917 13.125 25.258 13.125 25.8333C13.125 26.4086 13.5914 26.875 14.1667 26.875C14.742 26.875 15.2083 26.4086 15.2083 25.8333C15.2083 25.258 14.742 24.7917 14.1667 24.7917Z" fill="#00374E"/>
</svg>
