<svg width="21" height="20" viewBox="0 0 21 20" fill="none" xmlns="http://www.w3.org/2000/svg">
<path id="Vector" d="M1.68121 15.625C1.68121 16.6068 2.47714 17.4028 3.45898 17.4028C4.44082 17.4028 5.23676 16.6068 5.23676 15.625C5.23676 14.6432 4.44082 13.8472 3.45898 13.8472C2.47714 13.8472 1.68121 14.6432 1.68121 15.625ZM14.8062 3.75C14.8062 4.73184 15.6021 5.52778 16.584 5.52778C17.5658 5.52778 18.3618 4.73184 18.3618 3.75C18.3618 2.76816 17.5658 1.97222 16.584 1.97222C15.6021 1.97222 14.8062 2.76816 14.8062 3.75ZM3.68262 15.8722L4.2295 15.3774L3.78222 14.883L3.23535 15.3778L3.68262 15.8722ZM5.32325 14.3878L6.417 13.3982L5.96972 12.9039L4.87597 13.8934L5.32325 14.3878ZM7.51075 12.4086L8.6045 11.4191L8.15722 10.9247L7.06347 11.9143L7.51075 12.4086ZM9.69825 10.4295L10.2451 9.93468L9.79785 9.44032L9.25097 9.93511L9.69825 10.4295ZM10.2451 9.93468L10.792 9.43989L10.3447 8.94553L9.79785 9.44032L10.2451 9.93468ZM11.8857 8.4503L12.9795 7.46072L12.5322 6.96636L11.4385 7.95595L11.8857 8.4503ZM14.0732 6.47114L15.167 5.48155L14.7197 4.9872L13.626 5.97678L14.0732 6.47114ZM16.2607 4.49197L16.8076 3.99718L16.3603 3.50282L15.8135 3.99761L16.2607 4.49197Z" fill="#002738"/>
<path id="Vector_2" d="M9.33398 9L9.51968 8.53576C9.33397 8.46148 9.12186 8.50502 8.98043 8.64645C8.839 8.78788 8.79546 8.99999 8.86975 9.1857L9.33398 9ZM12.6673 17.3333L12.2031 17.519C12.2791 17.7092 12.4635 17.8337 12.6683 17.8333C12.8731 17.8329 13.057 17.7076 13.1323 17.5172L12.6673 17.3333ZM14.084 13.75L13.9002 13.285C13.7716 13.3358 13.6698 13.4376 13.619 13.5662L14.084 13.75ZM17.6673 12.3333L17.8511 12.7983C18.0416 12.723 18.1669 12.5392 18.1673 12.3343C18.1677 12.1295 18.0432 11.9452 17.853 11.8691L17.6673 12.3333ZM8.86975 9.1857L12.2031 17.519L13.1316 17.1476L9.79822 8.8143L8.86975 9.1857ZM13.1323 17.5172L14.549 13.9338L13.619 13.5662L12.2023 17.1495L13.1323 17.5172ZM14.2678 14.215L17.8511 12.7983L17.4835 11.8684L13.9002 13.285L14.2678 14.215ZM17.853 11.8691L9.51968 8.53576L9.14829 9.46424L17.4816 12.7976L17.853 11.8691Z" fill="#002738"/>
</svg>
