<svg width="149" height="96" viewBox="0 0 149 96" fill="none" xmlns="http://www.w3.org/2000/svg">
<path fillRule="evenodd" clipRule="evenodd" d="M47.2023 4C43.7473 4 40.9466 6.46243 40.9466 9.5C40.9466 12.5376 43.7473 15 47.2023 15H94.9733C98.4282 15 101.229 12.5376 101.229 9.5C101.229 6.46243 98.4282 4 94.9733 4H47.2023ZM21.042 19C13.818 19 7.96183 24.1487 7.96183 30.5C7.96183 36.8513 13.818 42 21.042 42H23.3157C30.5397 42 36.3958 47.1487 36.3958 53.5C36.3958 59.8513 30.5397 64.0601 23.3157 64.0601H18.8627C17.1566 64.0601 15.4505 64.0016 13.4272 64.0016C5.99135 64.1057 0 69.4377 0 76C0 82.6274 6.1108 88 13.6489 88H128.527C136.065 88 142.176 82.6274 142.176 76C142.176 71.0806 138 65 130.5 65H123.407C116.183 65 110.327 59.8513 110.327 53.5C110.327 47.1487 116.183 42 123.407 42C130.631 42 134.214 36.8513 134.214 30.5C134.214 24.1487 128.358 19 121.134 19H21.042Z" fill="#F0F4F6"/>
<path fillRule="evenodd" clipRule="evenodd" d="M110.244 1.08932C110.392 1.18043 110.481 1.34136 110.481 1.51465V2.50091C110.481 2.77705 110.258 3.00091 109.981 3.00091C109.705 3.00091 109.481 2.77705 109.481 2.50091V2.32366L109.36 2.38455C109.113 2.50804 108.812 2.40793 108.689 2.16094C108.565 1.91395 108.665 1.61361 108.912 1.49012L109.758 1.06744C109.913 0.989938 110.097 0.99822 110.244 1.08932ZM62.4173 1.06744C62.5581 0.997053 62.7238 0.997053 62.8645 1.06744L63.7099 1.49012C63.9569 1.61361 64.057 1.91395 63.9335 2.16094C63.81 2.40793 63.5097 2.50804 63.2627 2.38455L63.1409 2.32367V2.50091C63.1409 2.77705 62.9171 3.00091 62.6409 3.00091C62.3648 3.00091 62.1409 2.77705 62.1409 2.50091V2.32367L62.0192 2.38455C61.7722 2.50804 61.4718 2.40793 61.3483 2.16094C61.2249 1.91395 61.325 1.61361 61.572 1.49012L62.4173 1.06744ZM60.552 2.55909C60.6755 2.80608 60.5754 3.10642 60.3284 3.22991L58.6377 4.07528C58.3907 4.19877 58.0904 4.09866 57.9669 3.85167C57.8434 3.60468 57.9435 3.30434 58.1905 3.18085L59.8812 2.33548C60.1282 2.21199 60.4286 2.3121 60.552 2.55909ZM64.7298 2.55909C64.8533 2.3121 65.1536 2.21199 65.4006 2.33548L67.0914 3.18085C67.3383 3.30434 67.4385 3.60468 67.315 3.85167C67.1915 4.09866 66.8911 4.19877 66.6441 4.07528L64.9534 3.22991C64.7064 3.10642 64.6063 2.80608 64.7298 2.55909ZM107.892 2.55909C108.016 2.80608 107.916 3.10642 107.669 3.22991L105.978 4.07528C105.731 4.19877 105.431 4.09866 105.307 3.85167C105.184 3.60468 105.284 3.30434 105.531 3.18085L107.222 2.33548C107.469 2.21199 107.769 2.3121 107.892 2.55909ZM57.1706 4.24982C57.2941 4.49681 57.194 4.79715 56.947 4.92064L55.2562 5.76601C55.0093 5.8895 54.7089 5.78939 54.5854 5.5424C54.4619 5.29541 54.562 4.99507 54.809 4.87158L56.4998 4.02621C56.7468 3.90272 57.0471 4.00283 57.1706 4.24982ZM68.1113 4.24982C68.2348 4.00283 68.5351 3.90272 68.7821 4.02621L70.4728 4.87158C70.7198 4.99507 70.8199 5.29541 70.6964 5.5424C70.5729 5.78939 70.2726 5.8895 70.0256 5.76601L68.3349 4.92064C68.0879 4.79715 67.9878 4.49681 68.1113 4.24982ZM104.511 4.24982C104.635 4.49681 104.534 4.79715 104.287 4.92064L102.597 5.76601C102.35 5.8895 102.049 5.78939 101.926 5.5424C101.802 5.29541 101.902 4.99507 102.149 4.87158L103.84 4.02621C104.087 3.90272 104.388 4.00283 104.511 4.24982ZM62.6409 3.97343C62.9171 3.97343 63.1409 4.19728 63.1409 4.47343V6.44595C63.1409 6.72209 62.9171 6.94595 62.6409 6.94595C62.3648 6.94595 62.1409 6.72209 62.1409 6.44595V4.47343C62.1409 4.19728 62.3648 3.97343 62.6409 3.97343ZM109.981 3.97343C110.258 3.97343 110.481 4.19728 110.481 4.47343V6.44595C110.481 6.72209 110.258 6.94595 109.981 6.94595C109.705 6.94595 109.481 6.72209 109.481 6.44595V4.47343C109.481 4.19728 109.705 3.97343 109.981 3.97343ZM53.7891 5.94055C53.9126 6.18754 53.8125 6.48788 53.5655 6.61137L51.8748 7.45674C51.6278 7.58023 51.3275 7.48012 51.204 7.23313C51.0805 6.98614 51.1806 6.6858 51.4276 6.56231L53.1183 5.71694C53.3653 5.59345 53.6656 5.69356 53.7891 5.94055ZM71.4927 5.94055C71.6162 5.69356 71.9166 5.59345 72.1636 5.71694L73.8543 6.56231C74.1013 6.6858 74.2014 6.98614 74.0779 7.23313C73.9544 7.48012 73.6541 7.58023 73.4071 7.45674L71.7163 6.61137C71.4693 6.48788 71.3692 6.18754 71.4927 5.94055ZM101.13 5.94055C101.253 6.18754 101.153 6.48788 100.906 6.61137L99.2152 7.45674C98.9682 7.58023 98.6679 7.48012 98.5444 7.23313C98.4209 6.98614 98.521 6.6858 98.768 6.56231L100.459 5.71694C100.706 5.59345 101.006 5.69356 101.13 5.94055ZM97.7481 7.63128C97.8716 7.87827 97.7715 8.17861 97.5245 8.3021L95.8338 9.14747C95.5868 9.27096 95.2864 9.17085 95.163 8.92386C95.0395 8.67687 95.1396 8.37653 95.3866 8.25304L97.0773 7.40767C97.3243 7.28418 97.6246 7.38429 97.7481 7.63128ZM50.4077 7.63128C50.5312 7.87827 50.431 8.17861 50.1841 8.3021L48.4933 9.14747C48.2463 9.27096 47.946 9.17085 47.8225 8.92386C47.699 8.67687 47.7991 8.37653 48.0461 8.25304L49.7368 7.40767C49.9838 7.28418 50.2842 7.38429 50.4077 7.63128ZM74.8742 7.63128C74.9977 7.38429 75.298 7.28418 75.545 7.40767L77.2357 8.25304C77.4827 8.37653 77.5828 8.67687 77.4593 8.92386C77.3359 9.17085 77.0355 9.27096 76.7885 9.14747L75.0978 8.3021C74.8508 8.17861 74.7507 7.87827 74.8742 7.63128ZM62.6409 7.91846C62.9171 7.91846 63.1409 8.14232 63.1409 8.41846V10.391C63.1409 10.6671 62.9171 10.891 62.6409 10.891C62.3648 10.891 62.1409 10.6671 62.1409 10.391V8.41846C62.1409 8.14232 62.3648 7.91846 62.6409 7.91846ZM109.981 7.91846C110.258 7.91846 110.481 8.14232 110.481 8.41846V10.391C110.481 10.6671 110.258 10.891 109.981 10.891C109.705 10.891 109.481 10.6671 109.481 10.391V8.41846C109.481 8.14232 109.705 7.91846 109.981 7.91846ZM47.0262 9.32201C47.1497 9.569 47.0496 9.86934 46.8026 9.99283L45.1119 10.8382C44.8649 10.9617 44.5645 10.8616 44.441 10.6146C44.3176 10.3676 44.4177 10.0673 44.6647 9.94377L46.3554 9.0984C46.6024 8.97491 46.9027 9.07502 47.0262 9.32201ZM78.2556 9.32201C78.3791 9.07502 78.6795 8.97491 78.9265 9.0984L80.6172 9.94377C80.8642 10.0673 80.9643 10.3676 80.8408 10.6146C80.7173 10.8616 80.417 10.9617 80.17 10.8382L78.4793 9.99283C78.2323 9.86934 78.1322 9.569 78.2556 9.32201ZM94.3666 9.32201C94.4901 9.569 94.39 9.86934 94.143 9.99283L92.4523 10.8382C92.2053 10.9617 91.905 10.8616 91.7815 10.6146C91.658 10.3676 91.7581 10.0673 92.0051 9.94377L93.6958 9.0984C93.9428 8.97491 94.2432 9.07502 94.3666 9.32201ZM43.6447 11.0127C43.7682 11.2597 43.6681 11.5601 43.4211 11.6836L41.7304 12.5289C41.4834 12.6524 41.1831 12.5523 41.0596 12.3053C40.9361 12.0583 41.0362 11.758 41.2832 11.6345L42.9739 10.7891C43.2209 10.6656 43.5213 10.7658 43.6447 11.0127ZM81.6371 11.0127C81.7606 10.7658 82.0609 10.6656 82.3079 10.7891L83.9987 11.6345C84.2457 11.758 84.3458 12.0583 84.2223 12.3053C84.0988 12.5523 83.7984 12.6524 83.5514 12.5289L81.8607 11.6836C81.6137 11.5601 81.5136 11.2597 81.6371 11.0127ZM90.9852 11.0127C91.1087 11.2597 91.0086 11.5601 90.7616 11.6836L89.0709 12.5289C88.8239 12.6524 88.5235 12.5523 88.4 12.3053C88.2765 12.0583 88.3767 11.758 88.6236 11.6345L90.3144 10.7891C90.5614 10.6656 90.8617 10.7658 90.9852 11.0127ZM62.6409 11.8635C62.9171 11.8635 63.1409 12.0874 63.1409 12.3635V14.336C63.1409 14.6122 62.9171 14.836 62.6409 14.836C62.3648 14.836 62.1409 14.6122 62.1409 14.336V12.3635C62.1409 12.0874 62.3648 11.8635 62.6409 11.8635ZM109.981 11.8635C110.258 11.8635 110.481 12.0874 110.481 12.3635V14.336C110.481 14.6122 110.258 14.836 109.981 14.836C109.705 14.836 109.481 14.6122 109.481 14.336V12.3635C109.481 12.0874 109.705 11.8635 109.981 11.8635ZM40.2633 12.7035C40.3868 12.9505 40.2867 13.2508 40.0397 13.3743L39.4707 13.6588V14.336C39.4707 14.6122 39.2468 14.836 38.9707 14.836C38.6946 14.836 38.4707 14.6122 38.4707 14.336V13.3498C38.4707 13.1604 38.5777 12.9872 38.7471 12.9025L39.5925 12.4799C39.8395 12.3564 40.1398 12.4565 40.2633 12.7035ZM85.0186 12.7035C85.1421 12.4565 85.4424 12.3564 85.6894 12.4799L86.3112 12.7907L86.9329 12.4799C87.1799 12.3564 87.4802 12.4565 87.6037 12.7035C87.7272 12.9505 87.6271 13.2508 87.3801 13.3743L86.8111 13.6588V14.336C86.8111 14.6122 86.5873 14.836 86.3111 14.836C86.035 14.836 85.8111 14.6122 85.8111 14.336V13.6588L85.2422 13.3743C84.9952 13.2508 84.8951 12.9505 85.0186 12.7035ZM38.9707 15.8085C39.2468 15.8085 39.4707 16.0324 39.4707 16.3085V18.2811C39.4707 18.5572 39.2468 18.7811 38.9707 18.7811C38.6946 18.7811 38.4707 18.5572 38.4707 18.2811V16.3085C38.4707 16.0324 38.6946 15.8085 38.9707 15.8085ZM86.3111 15.8085C86.5873 15.8085 86.8111 16.0324 86.8111 16.3085V18.2811C86.8111 18.5572 86.5873 18.7811 86.3111 18.7811C86.035 18.7811 85.8111 18.5572 85.8111 18.2811V16.3085C85.8111 16.0324 86.035 15.8085 86.3111 15.8085ZM62.6409 15.8085C62.9171 15.8085 63.1409 16.0324 63.1409 16.3085V18.2811C63.1409 18.5572 62.9171 18.7811 62.6409 18.7811C62.3648 18.7811 62.1409 18.5572 62.1409 18.2811V16.3085C62.1409 16.0324 62.3648 15.8085 62.6409 15.8085ZM109.981 15.8085C110.258 15.8085 110.481 16.0324 110.481 16.3085V18.2811C110.481 18.5572 110.258 18.7811 109.981 18.7811C109.705 18.7811 109.481 18.5572 109.481 18.2811V16.3085C109.481 16.0324 109.705 15.8085 109.981 15.8085ZM38.9707 19.7536C39.2468 19.7536 39.4707 19.9774 39.4707 20.2536V22.2261C39.4707 22.5022 39.2468 22.7261 38.9707 22.7261C38.6946 22.7261 38.4707 22.5022 38.4707 22.2261V20.2536C38.4707 19.9774 38.6946 19.7536 38.9707 19.7536ZM62.6409 19.7536C62.9171 19.7536 63.1409 19.9774 63.1409 20.2536V22.2261C63.1409 22.5022 62.9171 22.7261 62.6409 22.7261C62.3648 22.7261 62.1409 22.5022 62.1409 22.2261V20.2536C62.1409 19.9774 62.3648 19.7536 62.6409 19.7536ZM86.3111 19.7536C86.5873 19.7536 86.8111 19.9774 86.8111 20.2536V22.2261C86.8111 22.5022 86.5873 22.7261 86.3111 22.7261C86.035 22.7261 85.8111 22.5022 85.8111 22.2261V20.2536C85.8111 19.9774 86.035 19.7536 86.3111 19.7536ZM109.981 19.7536C110.258 19.7536 110.481 19.9774 110.481 20.2536V22.2261C110.481 22.5022 110.258 22.7261 109.981 22.7261C109.705 22.7261 109.481 22.5022 109.481 22.2261V20.2536C109.481 19.9774 109.705 19.7536 109.981 19.7536ZM38.9707 23.6986C39.2468 23.6986 39.4707 23.9225 39.4707 24.1986V26.1711C39.4707 26.4473 39.2468 26.6711 38.9707 26.6711C38.6946 26.6711 38.4707 26.4473 38.4707 26.1711V24.1986C38.4707 23.9225 38.6946 23.6986 38.9707 23.6986ZM62.6409 23.6986C62.9171 23.6986 63.1409 23.9225 63.1409 24.1986V26.1711C63.1409 26.4473 62.9171 26.6711 62.6409 26.6711C62.3648 26.6711 62.1409 26.4473 62.1409 26.1711V24.1986C62.1409 23.9225 62.3648 23.6986 62.6409 23.6986ZM86.3111 23.6986C86.5873 23.6986 86.8111 23.9225 86.8111 24.1986V26.1711C86.8111 26.4473 86.5873 26.6711 86.3111 26.6711C86.035 26.6711 85.8111 26.4473 85.8111 26.1711V24.1986C85.8111 23.9225 86.035 23.6986 86.3111 23.6986ZM109.981 23.6986C110.258 23.6986 110.481 23.9225 110.481 24.1986V26.1711C110.481 26.4473 110.258 26.6711 109.981 26.6711C109.705 26.6711 109.481 26.4473 109.481 26.1711V24.1986C109.481 23.9225 109.705 23.6986 109.981 23.6986ZM38.9707 27.6437C39.2468 27.6437 39.4707 27.8675 39.4707 28.1437V30.1162C39.4707 30.3923 39.2468 30.6162 38.9707 30.6162C38.6946 30.6162 38.4707 30.3923 38.4707 30.1162V28.1437C38.4707 27.8675 38.6946 27.6437 38.9707 27.6437ZM62.6409 27.6437C62.9171 27.6437 63.1409 27.8675 63.1409 28.1437V30.1162C63.1409 30.3923 62.9171 30.6162 62.6409 30.6162C62.3648 30.6162 62.1409 30.3923 62.1409 30.1162V28.1437C62.1409 27.8675 62.3648 27.6437 62.6409 27.6437ZM86.3111 27.6437C86.5873 27.6437 86.8111 27.8675 86.8111 28.1437V30.1162C86.8111 30.3923 86.5873 30.6162 86.3111 30.6162C86.035 30.6162 85.8111 30.3923 85.8111 30.1162V28.1437C85.8111 27.8675 86.035 27.6437 86.3111 27.6437ZM109.981 27.6437C110.258 27.6437 110.481 27.8675 110.481 28.1437V30.1162C110.481 30.3923 110.258 30.6162 109.981 30.6162C109.705 30.6162 109.481 30.3923 109.481 30.1162V28.1437C109.481 27.8675 109.705 27.6437 109.981 27.6437ZM38.9707 31.5887C39.2468 31.5887 39.4707 31.8125 39.4707 32.0887V34.0612C39.4707 34.3373 39.2468 34.5612 38.9707 34.5612C38.6946 34.5612 38.4707 34.3373 38.4707 34.0612V32.0887C38.4707 31.8125 38.6946 31.5887 38.9707 31.5887ZM86.3111 31.5887C86.5873 31.5887 86.8111 31.8125 86.8111 32.0887V34.0612C86.8111 34.3373 86.5873 34.5612 86.3111 34.5612C86.035 34.5612 85.8111 34.3373 85.8111 34.0612V32.0887C85.8111 31.8125 86.035 31.5887 86.3111 31.5887ZM62.6409 31.5887C62.9171 31.5887 63.1409 31.8125 63.1409 32.0887V34.0612C63.1409 34.3373 62.9171 34.5612 62.6409 34.5612C62.3648 34.5612 62.1409 34.3373 62.1409 34.0612V32.0887C62.1409 31.8125 62.3648 31.5887 62.6409 31.5887ZM109.981 31.5887C110.258 31.5887 110.481 31.8125 110.481 32.0887V34.0612C110.481 34.3373 110.258 34.5612 109.981 34.5612C109.705 34.5612 109.481 34.3373 109.481 34.0612V32.0887C109.481 31.8125 109.705 31.5887 109.981 31.5887ZM38.9707 35.5337C39.2468 35.5337 39.4707 35.7576 39.4707 36.0337V38.0062C39.4707 38.2824 39.2468 38.5062 38.9707 38.5062C38.6946 38.5062 38.4707 38.2824 38.4707 38.0062V36.0337C38.4707 35.7576 38.6946 35.5337 38.9707 35.5337ZM86.3111 35.5337C86.5873 35.5337 86.8111 35.7576 86.8111 36.0337V38.0062C86.8111 38.2824 86.5873 38.5062 86.3111 38.5062C86.035 38.5062 85.8111 38.2824 85.8111 38.0062V36.0337C85.8111 35.7576 86.035 35.5337 86.3111 35.5337ZM62.6409 35.5337C62.9171 35.5337 63.1409 35.7576 63.1409 36.0337V38.0062C63.1409 38.2824 62.9171 38.5062 62.6409 38.5062C62.3648 38.5062 62.1409 38.2824 62.1409 38.0062V36.0337C62.1409 35.7576 62.3648 35.5337 62.6409 35.5337ZM109.981 35.5337C110.258 35.5337 110.481 35.7576 110.481 36.0337V38.0062C110.481 38.2824 110.258 38.5062 109.981 38.5062C109.705 38.5062 109.481 38.2824 109.481 38.0062V36.0337C109.481 35.7576 109.705 35.5337 109.981 35.5337ZM38.9707 39.4788C39.2468 39.4788 39.4707 39.7026 39.4707 39.9788V41.9513C39.4707 42.2274 39.2468 42.4513 38.9707 42.4513C38.6946 42.4513 38.4707 42.2274 38.4707 41.9513V39.9788C38.4707 39.7026 38.6946 39.4788 38.9707 39.4788ZM62.6409 39.4788C62.9171 39.4788 63.1409 39.7026 63.1409 39.9788V41.9513C63.1409 42.2274 62.9171 42.4513 62.6409 42.4513C62.3648 42.4513 62.1409 42.2274 62.1409 41.9513V39.9788C62.1409 39.7026 62.3648 39.4788 62.6409 39.4788ZM86.3111 39.4788C86.5873 39.4788 86.8111 39.7026 86.8111 39.9788V41.9513C86.8111 42.2274 86.5873 42.4513 86.3111 42.4513C86.035 42.4513 85.8111 42.2274 85.8111 41.9513V39.9788C85.8111 39.7026 86.035 39.4788 86.3111 39.4788ZM109.981 39.4788C110.258 39.4788 110.481 39.7026 110.481 39.9788V41.9513C110.481 42.2274 110.258 42.4513 109.981 42.4513C109.705 42.4513 109.481 42.2274 109.481 41.9513V39.9788C109.481 39.7026 109.705 39.4788 109.981 39.4788ZM38.9707 43.4238C39.2468 43.4238 39.4707 43.6477 39.4707 43.9238V45.8963C39.4707 46.1725 39.2468 46.3963 38.9707 46.3963C38.6946 46.3963 38.4707 46.1725 38.4707 45.8963V43.9238C38.4707 43.6477 38.6946 43.4238 38.9707 43.4238ZM62.6409 43.4238C62.9171 43.4238 63.1409 43.6477 63.1409 43.9238V45.8963C63.1409 46.1725 62.9171 46.3963 62.6409 46.3963C62.3648 46.3963 62.1409 46.1725 62.1409 45.8963V43.9238C62.1409 43.6477 62.3648 43.4238 62.6409 43.4238ZM86.3111 43.4238C86.5873 43.4238 86.8111 43.6477 86.8111 43.9238V45.8963C86.8111 46.1725 86.5873 46.3963 86.3111 46.3963C86.035 46.3963 85.8111 46.1725 85.8111 45.8963V43.9238C85.8111 43.6477 86.035 43.4238 86.3111 43.4238ZM109.981 43.4238C110.258 43.4238 110.481 43.6477 110.481 43.9238V45.8963C110.481 46.1725 110.258 46.3963 109.981 46.3963C109.705 46.3963 109.481 46.1725 109.481 45.8963V43.9238C109.481 43.6477 109.705 43.4238 109.981 43.4238ZM38.9707 47.3688C39.2468 47.3688 39.4707 47.5927 39.4707 47.8688V49.8414C39.4707 50.1175 39.2468 50.3414 38.9707 50.3414C38.6946 50.3414 38.4707 50.1175 38.4707 49.8414V47.8688C38.4707 47.5927 38.6946 47.3688 38.9707 47.3688ZM62.6409 47.3688C62.9171 47.3688 63.1409 47.5927 63.1409 47.8688V49.8414C63.1409 50.1175 62.9171 50.3414 62.6409 50.3414C62.3648 50.3414 62.1409 50.1175 62.1409 49.8414V47.8688C62.1409 47.5927 62.3648 47.3688 62.6409 47.3688ZM86.3111 47.3688C86.5873 47.3688 86.8111 47.5927 86.8111 47.8688V49.8414C86.8111 50.1175 86.5873 50.3414 86.3111 50.3414C86.035 50.3414 85.8111 50.1175 85.8111 49.8414V47.8688C85.8111 47.5927 86.035 47.3688 86.3111 47.3688ZM109.981 47.3688C110.258 47.3688 110.481 47.5927 110.481 47.8688V49.8414C110.481 50.1175 110.258 50.3414 109.981 50.3414C109.705 50.3414 109.481 50.1175 109.481 49.8414V47.8688C109.481 47.5927 109.705 47.3688 109.981 47.3688ZM38.9707 51.3139C39.2468 51.3139 39.4707 51.5377 39.4707 51.8139V53.7864C39.4707 54.0625 39.2468 54.2864 38.9707 54.2864C38.6946 54.2864 38.4707 54.0625 38.4707 53.7864V51.8139C38.4707 51.5377 38.6946 51.3139 38.9707 51.3139ZM62.6409 51.3139C62.9171 51.3139 63.1409 51.5377 63.1409 51.8139V53.7864C63.1409 54.0625 62.9171 54.2864 62.6409 54.2864C62.3648 54.2864 62.1409 54.0625 62.1409 53.7864V51.8139C62.1409 51.5377 62.3648 51.3139 62.6409 51.3139ZM86.3111 51.3139C86.5873 51.3139 86.8111 51.5377 86.8111 51.8139V53.7864C86.8111 54.0625 86.5873 54.2864 86.3111 54.2864C86.035 54.2864 85.8111 54.0625 85.8111 53.7864V51.8139C85.8111 51.5377 86.035 51.3139 86.3111 51.3139ZM109.981 51.3139C110.258 51.3139 110.481 51.5377 110.481 51.8139V53.7864C110.481 54.0625 110.258 54.2864 109.981 54.2864C109.705 54.2864 109.481 54.0625 109.481 53.7864V51.8139C109.481 51.5377 109.705 51.3139 109.981 51.3139ZM38.9707 55.2589C39.2468 55.2589 39.4707 55.4828 39.4707 55.7589V57.7314C39.4707 58.0076 39.2468 58.2314 38.9707 58.2314C38.6946 58.2314 38.4707 58.0076 38.4707 57.7314V55.7589C38.4707 55.4828 38.6946 55.2589 38.9707 55.2589ZM86.3111 55.2589C86.5873 55.2589 86.8111 55.4828 86.8111 55.7589V57.7314C86.8111 58.0076 86.5873 58.2314 86.3111 58.2314C86.035 58.2314 85.8111 58.0076 85.8111 57.7314V55.7589C85.8111 55.4828 86.035 55.2589 86.3111 55.2589ZM62.6409 55.2589C62.9171 55.2589 63.1409 55.4828 63.1409 55.7589V57.7314C63.1409 58.0076 62.9171 58.2314 62.6409 58.2314C62.3648 58.2314 62.1409 58.0076 62.1409 57.7314V55.7589C62.1409 55.4828 62.3648 55.2589 62.6409 55.2589ZM109.981 55.2589C110.258 55.2589 110.481 55.4828 110.481 55.7589V57.7314C110.481 58.0076 110.258 58.2314 109.981 58.2314C109.705 58.2314 109.481 58.0076 109.481 57.7314V55.7589C109.481 55.4828 109.705 55.2589 109.981 55.2589ZM38.9707 59.204C39.2468 59.204 39.4707 59.4278 39.4707 59.704V61.6765C39.4707 61.9526 39.2468 62.1765 38.9707 62.1765C38.6946 62.1765 38.4707 61.9526 38.4707 61.6765V59.704C38.4707 59.4278 38.6946 59.204 38.9707 59.204ZM62.6409 59.204C62.9171 59.204 63.1409 59.4278 63.1409 59.704V60.3812L63.7099 60.6657C63.9569 60.7892 64.057 61.0895 63.9335 61.3365C63.81 61.5835 63.5097 61.6836 63.2627 61.5601L62.6409 61.2492L62.0192 61.5601C61.7722 61.6836 61.4718 61.5835 61.3483 61.3365C61.2249 61.0895 61.325 60.7892 61.572 60.6657L62.1409 60.3812V59.704C62.1409 59.4278 62.3648 59.204 62.6409 59.204ZM86.3111 59.204C86.5873 59.204 86.8111 59.4278 86.8111 59.704V61.6765C86.8111 61.9526 86.5873 62.1765 86.3111 62.1765C86.035 62.1765 85.8111 61.9526 85.8111 61.6765V59.704C85.8111 59.4278 86.035 59.204 86.3111 59.204ZM109.981 59.204C110.258 59.204 110.481 59.4278 110.481 59.704V60.6902C110.481 60.8796 110.374 61.0527 110.205 61.1374L109.36 61.5601C109.113 61.6836 108.812 61.5835 108.689 61.3365C108.565 61.0895 108.665 60.7892 108.912 60.6657L109.481 60.3812V59.704C109.481 59.4278 109.705 59.204 109.981 59.204ZM64.7298 61.7346C64.8533 61.4877 65.1536 61.3875 65.4006 61.511L67.0914 62.3564C67.3383 62.4799 67.4385 62.7802 67.315 63.0272C67.1915 63.2742 66.8911 63.3743 66.6441 63.2508L64.9534 62.4055C64.7064 62.282 64.6063 61.9816 64.7298 61.7346ZM107.892 61.7346C108.016 61.9816 107.916 62.282 107.669 62.4055L105.978 63.2508C105.731 63.3743 105.431 63.2742 105.307 63.0272C105.184 62.7802 105.284 62.4799 105.531 62.3564L107.222 61.511C107.469 61.3875 107.769 61.4877 107.892 61.7346ZM60.552 61.7346C60.6755 61.9816 60.5754 62.282 60.3284 62.4055L58.6377 63.2508C58.3907 63.3743 58.0904 63.2742 57.9669 63.0272C57.8434 62.7802 57.9435 62.4799 58.1905 62.3564L59.8812 61.511C60.1282 61.3876 60.4285 61.4877 60.552 61.7346ZM57.1706 63.4254C57.2941 63.6724 57.194 63.9727 56.947 64.0962L55.2562 64.9416C55.0093 65.0651 54.7089 64.9649 54.5854 64.718C54.4619 64.471 54.562 64.1706 54.809 64.0471L56.4998 63.2018C56.7468 63.0783 57.0471 63.1784 57.1706 63.4254ZM68.1113 63.4254C68.2348 63.1784 68.5351 63.0783 68.7821 63.2018L70.4728 64.0471C70.7198 64.1706 70.8199 64.471 70.6964 64.718C70.5729 64.9649 70.2726 65.0651 70.0256 64.9416L68.3349 64.0962C68.0879 63.9727 67.9878 63.6724 68.1113 63.4254ZM104.511 63.4254C104.635 63.6724 104.534 63.9727 104.287 64.0962L102.597 64.9416C102.35 65.0651 102.049 64.9649 101.926 64.718C101.802 64.471 101.902 64.1706 102.149 64.0471L103.84 63.2018C104.087 63.0783 104.388 63.1784 104.511 63.4254ZM38.9707 63.149C39.2468 63.149 39.4707 63.3728 39.4707 63.649V65.6215C39.4707 65.8977 39.2468 66.1215 38.9707 66.1215C38.6946 66.1215 38.4707 65.8977 38.4707 65.6215V63.649C38.4707 63.3728 38.6946 63.149 38.9707 63.149ZM86.3111 63.149C86.5873 63.149 86.8111 63.3728 86.8111 63.649V65.6215C86.8111 65.8977 86.5873 66.1215 86.3111 66.1215C86.035 66.1215 85.8111 65.8977 85.8111 65.6215V63.649C85.8111 63.3728 86.035 63.149 86.3111 63.149ZM53.7891 65.1161C53.9126 65.3631 53.8125 65.6634 53.5655 65.7869L51.8748 66.6323C51.6278 66.7558 51.3275 66.6557 51.204 66.4087C51.0805 66.1617 51.1806 65.8614 51.4276 65.7379L53.1183 64.8925C53.3653 64.769 53.6656 64.8691 53.7891 65.1161ZM71.4927 65.1161C71.6162 64.8691 71.9166 64.769 72.1636 64.8925L73.8543 65.7379C74.1013 65.8614 74.2014 66.1617 74.0779 66.4087C73.9544 66.6557 73.6541 66.7558 73.4071 66.6323L71.7163 65.7869C71.4693 65.6634 71.3692 65.3631 71.4927 65.1161ZM101.13 65.1161C101.253 65.3631 101.153 65.6634 100.906 65.7869L99.2152 66.6323C98.9682 66.7558 98.6679 66.6557 98.5444 66.4087C98.4209 66.1617 98.521 65.8614 98.768 65.7379L100.459 64.8925C100.706 64.769 101.006 64.8691 101.13 65.1161ZM50.4077 66.8068C50.5312 67.0538 50.431 67.3542 50.1841 67.4777L48.4933 68.323C48.2463 68.4465 47.946 68.3464 47.8225 68.0994C47.699 67.8524 47.7991 67.5521 48.0461 67.4286L49.7368 66.5832C49.9838 66.4597 50.2842 66.5599 50.4077 66.8068ZM74.8742 66.8068C74.9977 66.5599 75.298 66.4597 75.545 66.5832L77.2357 67.4286C77.4827 67.5521 77.5828 67.8524 77.4593 68.0994C77.3359 68.3464 77.0355 68.4465 76.7885 68.323L75.0978 67.4777C74.8508 67.3542 74.7507 67.0538 74.8742 66.8068ZM97.7481 66.8068C97.8716 67.0538 97.7715 67.3542 97.5245 67.4777L95.8338 68.323C95.5868 68.4465 95.2864 68.3464 95.163 68.0994C95.0395 67.8524 95.1396 67.5521 95.3866 67.4286L97.0773 66.5832C97.3243 66.4597 97.6246 66.5599 97.7481 66.8068ZM38.9707 67.094C39.2468 67.094 39.4707 67.3179 39.4707 67.594V69.5665C39.4707 69.8427 39.2468 70.0665 38.9707 70.0665C38.6946 70.0665 38.4707 69.8427 38.4707 69.5665V67.594C38.4707 67.3179 38.6946 67.094 38.9707 67.094ZM86.3111 67.094C86.5873 67.094 86.8111 67.3179 86.8111 67.594V69.5665C86.8111 69.8427 86.5873 70.0665 86.3111 70.0665C86.035 70.0665 85.8111 69.8427 85.8111 69.5665V67.594C85.8111 67.3179 86.035 67.094 86.3111 67.094ZM47.0262 68.4976C47.1497 68.7446 47.0496 69.0449 46.8026 69.1684L45.1119 70.0138C44.8649 70.1373 44.5645 70.0371 44.441 69.7902C44.3176 69.5432 44.4177 69.2428 44.6647 69.1193L46.3554 68.274C46.6024 68.1505 46.9027 68.2506 47.0262 68.4976ZM78.2556 68.4976C78.3791 68.2506 78.6795 68.1505 78.9265 68.274L80.6172 69.1193C80.8642 69.2428 80.9643 69.5432 80.8408 69.7901C80.7173 70.0371 80.417 70.1373 80.17 70.0138L78.4793 69.1684C78.2323 69.0449 78.1322 68.7446 78.2556 68.4976ZM94.3667 68.4976C94.4901 68.7446 94.39 69.0449 94.143 69.1684L92.4523 70.0138C92.2053 70.1373 91.905 70.0371 91.7815 69.7901C91.658 69.5432 91.7581 69.2428 92.0051 69.1193L93.6958 68.274C93.9428 68.1505 94.2432 68.2506 94.3667 68.4976ZM43.6447 70.1883C43.7682 70.4353 43.6681 70.7356 43.4211 70.8591L41.7304 71.7045C41.4834 71.828 41.1831 71.7279 41.0596 71.4809C40.9361 71.2339 41.0362 70.9336 41.2832 70.8101L42.9739 69.9647C43.2209 69.8412 43.5212 69.9413 43.6447 70.1883ZM81.6371 70.1883C81.7606 69.9413 82.0609 69.8412 82.3079 69.9647L83.9987 70.8101C84.2457 70.9336 84.3458 71.2339 84.2223 71.4809C84.0988 71.7279 83.7984 71.828 83.5514 71.7045L81.8607 70.8591C81.6137 70.7356 81.5136 70.4353 81.6371 70.1883ZM90.9852 70.1883C91.1087 70.4353 91.0086 70.7356 90.7616 70.8591L89.0709 71.7045C88.8239 71.828 88.5235 71.7279 88.4 71.4809C88.2765 71.2339 88.3767 70.9336 88.6236 70.8101L90.3144 69.9647C90.5614 69.8412 90.8617 69.9413 90.9852 70.1883ZM38.9707 71.0391C39.2468 71.0391 39.4707 71.2629 39.4707 71.5391V71.7163L39.5925 71.6554C39.8395 71.5319 40.1398 71.632 40.2633 71.879C40.3868 72.126 40.2867 72.4264 40.0397 72.5499L39.1943 72.9725C39.0393 73.05 38.8552 73.0417 38.7078 72.9506C38.5604 72.8595 38.4707 72.6986 38.4707 72.5253V71.5391C38.4707 71.2629 38.6946 71.0391 38.9707 71.0391ZM86.3111 71.0391C86.5873 71.0391 86.8111 71.2629 86.8111 71.5391V71.7163L86.9329 71.6554C87.1799 71.5319 87.4802 71.632 87.6037 71.879C87.7272 72.126 87.6271 72.4264 87.3801 72.5499L86.5348 72.9725C86.394 73.0429 86.2283 73.0429 86.0875 72.9725L85.2422 72.5499C84.9952 72.4264 84.8951 72.126 85.0186 71.879C85.1421 71.632 85.4424 71.5319 85.6894 71.6554L85.8111 71.7163V71.5391C85.8111 71.2629 86.035 71.0391 86.3111 71.0391Z" fill="#4BA6DE"/>
<path d="M127.872 52.3363C127.872 68.8694 114.469 82.2721 97.9359 82.2721C81.4027 82.2721 68 68.8694 68 52.3363C68 35.8031 81.4027 22.4004 97.9359 22.4004C114.469 22.4004 127.872 35.8031 127.872 52.3363Z" fill="white"/>
<path fillRule="evenodd" clipRule="evenodd" d="M97.9359 81.2721C113.917 81.2721 126.872 68.3171 126.872 52.3363C126.872 36.3554 113.917 23.4004 97.9359 23.4004C81.955 23.4004 69 36.3554 69 52.3363C69 68.3171 81.955 81.2721 97.9359 81.2721ZM97.9359 82.2721C114.469 82.2721 127.872 68.8694 127.872 52.3363C127.872 35.8031 114.469 22.4004 97.9359 22.4004C81.4027 22.4004 68 35.8031 68 52.3363C68 68.8694 81.4027 82.2721 97.9359 82.2721Z" fill="#4BA6DE"/>
<path d="M123.694 52.3364C123.694 66.5626 112.162 78.0952 97.9355 78.0952C83.7094 78.0952 72.1768 66.5626 72.1768 52.3364C72.1768 38.1102 83.7094 26.5776 97.9355 26.5776C112.162 26.5776 123.694 38.1102 123.694 52.3364Z" fill="white"/>
<path fillRule="evenodd" clipRule="evenodd" d="M97.9355 77.0952C111.609 77.0952 122.694 66.0103 122.694 52.3364C122.694 38.6625 111.609 27.5776 97.9355 27.5776C84.2616 27.5776 73.1768 38.6625 73.1768 52.3364C73.1768 66.0103 84.2616 77.0952 97.9355 77.0952ZM97.9355 78.0952C112.162 78.0952 123.694 66.5626 123.694 52.3364C123.694 38.1102 112.162 26.5776 97.9355 26.5776C83.7094 26.5776 72.1768 38.1102 72.1768 52.3364C72.1768 66.5626 83.7094 78.0952 97.9355 78.0952Z" fill="#4BA6DE"/>
<path d="M95.5862 57.7056V57.453C95.6043 55.8048 95.7714 54.4933 96.0876 53.5185C96.4128 52.5437 96.8735 51.755 97.4698 51.1525C98.066 50.5499 98.7842 50.0005 99.6244 49.5042C100.166 49.1675 100.654 48.7909 101.088 48.3744C101.522 47.9579 101.865 47.4794 102.118 46.9388C102.371 46.3983 102.497 45.8001 102.497 45.1444C102.497 44.3557 102.307 43.6733 101.928 43.0973C101.549 42.5213 101.043 42.0783 100.41 41.7681C99.787 41.4491 99.0914 41.2896 98.3235 41.2896C97.6279 41.2896 96.9639 41.4314 96.3315 41.7149C95.6991 41.9985 95.1751 42.4416 94.7596 43.0442C94.344 43.6379 94.1046 44.4044 94.0414 45.3437H89.9219C89.9851 43.7487 90.3962 42.4017 91.155 41.3029C91.9139 40.1952 92.9166 39.3578 94.1633 38.7906C95.4191 38.2235 96.8058 37.9399 98.3235 37.9399C99.9858 37.9399 101.44 38.2457 102.687 38.8571C103.934 39.4597 104.9 40.306 105.587 41.3959C106.282 42.477 106.63 43.7398 106.63 45.1842C106.63 46.1767 106.472 47.0717 106.156 47.8693C105.84 48.6579 105.388 49.3624 104.801 49.9827C104.223 50.603 103.527 51.1525 102.714 51.631C101.946 52.1006 101.323 52.588 100.844 53.0931C100.374 53.5982 100.031 54.1964 99.8141 54.8876C99.5973 55.5788 99.4799 56.4339 99.4618 57.453V57.7056H95.5862ZM97.6324 65.7873C96.8916 65.7873 96.2547 65.5303 95.7217 65.0163C95.1887 64.4935 94.9222 63.8643 94.9222 63.1288C94.9222 62.4022 95.1887 61.7819 95.7217 61.2679C96.2547 60.7451 96.8916 60.4836 97.6324 60.4836C98.3641 60.4836 98.9965 60.7451 99.5295 61.2679C100.072 61.7819 100.343 62.4022 100.343 63.1288C100.343 63.6162 100.216 64.0637 99.9632 64.4713C99.7193 64.8701 99.394 65.1891 98.9875 65.4284C98.581 65.6676 98.1293 65.7873 97.6324 65.7873Z" fill="#4BA6DE"/>
<path d="M115.34 76.0562L120.263 71.1334L137.11 87.9811C138.47 89.3405 138.47 91.5444 137.11 92.9038Lnan nanL137.11 92.9038C135.751 94.2632 133.547 94.2632 132.188 92.9038L115.34 76.0562Z" fill="#4BA6DE"/>
</svg>
