<svg width="65" height="24" viewBox="0 0 65 24" fill="none" xmlns="http://www.w3.org/2000/svg">
<g id="Frame 231285">
<path id="path14-5-7-2" d="M20.1179 0C15.5314 2.0109 7.95855 4.59206 9.99035 8.19342C12.4838 12.5452 26.9213 10.6245 22.0576 16.3865C18.7944 20.2582 17.2864 22.1492 16.578 23.4696C22.7348 21.6988 26.798 15.5764 25.8131 9.00379C25.2589 5.19235 23.1039 1.98117 20.1179 0ZM2.26388 3.54176C0.4785 6.15256 -0.352698 9.42402 0.140002 12.8155C1.18639 19.9579 7.77419 24.9098 14.8543 23.8595C14.9465 23.8299 15.0388 23.7997 15.1313 23.7997C18.1787 17.557 11.622 17.4975 13.6537 14.1661C15.5621 11.0748 1.95585 11.0748 2.26388 3.54176ZM29.8075 3.64635V19.7023H33.6862V5.59699C33.6862 4.51633 32.824 3.64635 31.7469 3.64635H29.8075ZM51.0298 3.67459V19.7009H58.6329C62.4501 19.7009 64.6667 18.0503 64.6667 15.1992V15.1685C64.6355 13.3379 63.8353 12.1377 62.0188 11.2976C63.1889 10.487 63.7738 9.40674 63.7738 7.99614V7.93596C63.7738 6.79554 63.4041 5.89533 62.6346 5.11517C61.6806 4.15467 60.2341 3.67459 58.4178 3.67459H51.0298ZM35.1964 3.68569V19.7117H41.445C43.8156 19.7117 46.0012 18.9012 47.5404 17.4005C49.049 15.9305 49.9101 13.9194 49.9101 11.6988V11.6388C49.9418 7.01675 46.3705 3.68569 41.4762 3.68569H35.1964ZM13.2364 6.75284C15.0174 6.70609 16.7811 8.51433 14.8849 8.46354C12.6687 8.37363 11.7761 7.26303 12.2682 6.99317C12.5761 6.83369 12.9066 6.7615 13.2364 6.75284ZM54.8161 7.18577H57.925C58.8181 7.18577 59.9257 7.4261 59.9257 8.53619V8.56637C59.9257 9.49662 59.1872 9.97697 57.7094 9.97697H54.8161V7.18577ZM39.1057 7.25686H41.4762C44.1236 7.25686 45.8782 9.02768 45.8782 11.6988V11.7286C45.8782 14.3694 44.093 16.1405 41.4762 16.1405H39.1057V7.25686ZM16.6035 8.09683C16.741 8.10093 16.9337 8.13902 17.1934 8.22342C18.3942 8.61356 18.2097 9.18392 17.4092 9.12375C16.7339 9.04789 15.8614 8.07468 16.6035 8.09683ZM18.85 9.54267C18.881 9.54187 18.9136 9.54237 18.9483 9.54422C19.5024 9.54422 20.3028 10.2643 19.1331 10.0243C18.3539 9.85532 18.3864 9.55469 18.85 9.54267ZM54.8161 13.3082H58.5102C60.018 13.3082 60.7877 13.7883 60.7877 14.7488V14.779C60.7569 15.7689 60.0492 16.2495 58.6023 16.2495H54.8161V13.3082Z" fill="white"/>
<path id="path20-5-4" d="M13.6837 14.1354C11.6213 17.4672 18.209 17.5273 15.1612 23.7697C15.069 23.7996 14.9768 23.7996 14.8842 23.8298C7.77337 24.8799 1.18564 19.9279 0.139253 12.785C-0.353447 9.39395 0.508699 6.12264 2.26305 3.51175C1.95502 11.0447 15.5923 11.0447 13.6837 14.1354ZM16.5771 23.4695C17.2856 22.1491 18.7936 20.2281 22.0567 16.3863C26.9513 10.6244 12.4831 12.5452 9.98963 8.19344C7.95783 4.59208 15.5614 2.0109 20.1482 5.72205e-06C23.1343 1.98118 25.289 5.19229 25.8431 9.03377C26.8283 15.5462 22.7339 21.6987 16.5771 23.4695ZM12.2984 6.96297C11.8058 7.23294 12.668 8.37357 14.9151 8.43377C17.1316 8.49375 14.2684 5.91257 12.2984 6.96297ZM17.2238 8.19344C15.5614 7.65321 16.6388 9.00372 17.4393 9.09394C18.2397 9.1537 18.3934 8.58367 17.2238 8.19344ZM18.9476 9.51391C18.3934 9.48387 18.3012 9.81422 19.1323 9.99424C20.3021 10.2343 19.5017 9.51391 18.9476 9.51391Z" fill="white"/>
</g>
</svg>
